<svg width="25" height="25" viewBox="0 0 25 25" fill="none" xmlns="http://www.w3.org/2000/svg">
<circle opacity="0.3" cx="12.5" cy="12.5" r="10" fill="#D0D5DD"/>
<path d="M8.28256 17.6112C7.18218 18.243 4.29706 19.5331 6.05429 21.1474C6.91269 21.936 7.86872 22.5 9.07068 22.5L15.9293 22.5C17.1313 22.5 18.0873 21.936 18.9457 21.1474C20.7029 19.5331 17.8178 18.243 16.7174 17.6112C14.1371 16.1296 10.8629 16.1296 8.28256 17.6112Z" stroke="#D0D5DD" stroke-width="1.5" stroke-linecap="round" stroke-linejoin="round"/>
<path d="M16 10.5C16 12.433 14.433 14 12.5 14C10.567 14 9 12.433 9 10.5C9 8.567 10.567 7 12.5 7C14.433 7 16 8.567 16 10.5Z" stroke="#D0D5DD" stroke-width="1.5"/>
<path d="M3.354 16.5C2.80501 15.2664 2.5 13.901 2.5 12.4646C2.5 6.96129 6.97715 2.5 12.5 2.5C18.0228 2.5 22.5 6.96129 22.5 12.4646C22.5 13.901 22.195 15.2664 21.646 16.5" stroke="#D0D5DD" stroke-width="1.5" stroke-linecap="round"/>
</svg>
