<svg width="17" height="16" viewBox="0 0 17 16" fill="none" xmlns="http://www.w3.org/2000/svg">
<path opacity="0.3" d="M15.625 8.00018C15.625 4.64143 15.625 2.96205 14.5816 1.91862C13.5381 0.875183 11.8588 0.875183 8.5 0.875183C5.14124 0.875183 3.46186 0.875183 2.41843 1.91862C1.375 2.96205 1.375 4.64143 1.375 8.00018C1.375 11.3589 1.375 13.0383 2.41843 14.0818C3.46186 15.1252 5.14124 15.1252 8.5 15.1252C11.8588 15.1252 13.5381 15.1252 14.5816 14.0818C15.625 13.0383 15.625 11.3589 15.625 8.00018Z" fill="white"/>
<path d="M8.5 5.00018L8.5 11.0002M5.5 8.00018L11.5 8.00018" stroke="white" stroke-width="1.5" stroke-linecap="round" stroke-linejoin="round"/>
<path d="M15.625 8.00018C15.625 4.64143 15.625 2.96205 14.5816 1.91862C13.5381 0.875183 11.8588 0.875183 8.5 0.875183C5.14124 0.875183 3.46186 0.875183 2.41843 1.91862C1.375 2.96205 1.375 4.64143 1.375 8.00018C1.375 11.3589 1.375 13.0383 2.41843 14.0818C3.46186 15.1252 5.14124 15.1252 8.5 15.1252C11.8588 15.1252 13.5381 15.1252 14.5816 14.0818C15.625 13.0383 15.625 11.3589 15.625 8.00018Z" stroke="white" stroke-width="1.5"/>
</svg>
