<svg width="41" height="40" viewBox="0 0 41 40" fill="none" xmlns="http://www.w3.org/2000/svg">
<rect x="0.5" width="40" height="40" rx="20" fill="#151B1F"/>
<path d="M11.5564 33.2152H9.80095L9.47758 34.1103H8.92322L10.3784 30.1085H10.9847L12.4342 34.1103H11.8798L11.5564 33.2152ZM11.4063 32.7879L10.6787 30.7552L9.95109 32.7879H11.4063Z" fill="white"/>
<path d="M16.8738 30.8881C17.1202 30.8881 17.3396 30.94 17.5321 31.044C17.7246 31.1441 17.8767 31.2961 17.9883 31.5002C18.1 31.7042 18.1558 31.9525 18.1558 32.2451V34.1103H17.6361V32.3202C17.6361 32.0045 17.5571 31.7639 17.3993 31.5983C17.2453 31.4289 17.0355 31.3442 16.7699 31.3442C16.4965 31.3442 16.279 31.4328 16.1173 31.6099C15.9557 31.7831 15.8748 32.0353 15.8748 32.3663V34.1103H15.3551V32.3202C15.3551 32.0045 15.2762 31.7639 15.1183 31.5983C14.9644 31.4289 14.7545 31.3442 14.4889 31.3442C14.2156 31.3442 13.9981 31.4328 13.8364 31.6099C13.6747 31.7831 13.5939 32.0353 13.5939 32.3663V34.1103H13.0684V30.9458H13.5939V31.402C13.6978 31.2365 13.8364 31.1094 14.0096 31.0209C14.1867 30.9323 14.3811 30.8881 14.5929 30.8881C14.8585 30.8881 15.0933 30.9477 15.2974 31.0671C15.5014 31.1864 15.6535 31.3616 15.7535 31.5926C15.8421 31.3693 15.9884 31.196 16.1924 31.0728C16.3965 30.9497 16.6236 30.8881 16.8738 30.8881Z" fill="white"/>
<path d="M18.8214 32.5165C18.8214 32.1931 18.8869 31.9102 19.0178 31.6676C19.1487 31.4212 19.3277 31.2307 19.5548 31.0959C19.7858 30.9612 20.0418 30.8938 20.3228 30.8938C20.6 30.8938 20.8406 30.9535 21.0446 31.0728C21.2487 31.1922 21.4007 31.3423 21.5008 31.5233V30.9458H22.0321V34.1103H21.5008V33.5213C21.3969 33.7061 21.241 33.86 21.0331 33.9832C20.8291 34.1026 20.5904 34.1622 20.317 34.1622C20.036 34.1622 19.7819 34.0929 19.5548 33.9544C19.3277 33.8158 19.1487 33.6214 19.0178 33.3711C18.8869 33.1209 18.8214 32.836 18.8214 32.5165ZM21.5008 32.5223C21.5008 32.2836 21.4527 32.0757 21.3565 31.8986C21.2602 31.7215 21.1293 31.5868 20.9638 31.4944C20.8021 31.3981 20.6231 31.35 20.4268 31.35C20.2304 31.35 20.0514 31.3962 19.8897 31.4886C19.728 31.581 19.5991 31.7157 19.5028 31.8928C19.4066 32.0699 19.3585 32.2778 19.3585 32.5165C19.3585 32.759 19.4066 32.9708 19.5028 33.1517C19.5991 33.3288 19.728 33.4654 19.8897 33.5617C20.0514 33.6541 20.2304 33.7003 20.4268 33.7003C20.6231 33.7003 20.8021 33.6541 20.9638 33.5617C21.1293 33.4654 21.2602 33.3288 21.3565 33.1517C21.4527 32.9708 21.5008 32.7609 21.5008 32.5223Z" fill="white"/>
<path d="M23.3128 33.6772H24.8661V34.1103H22.7122V33.6772L24.2483 31.3731H22.7238V30.9458H24.8546V31.3731L23.3128 33.6772Z" fill="white"/>
<path d="M26.9281 34.1622C26.6317 34.1622 26.3622 34.0949 26.1197 33.9601C25.881 33.8254 25.6924 33.6348 25.5538 33.3884C25.419 33.1382 25.3517 32.8495 25.3517 32.5223C25.3517 32.1989 25.421 31.914 25.5595 31.6676C25.702 31.4174 25.8945 31.2268 26.137 31.0959C26.3795 30.9612 26.6509 30.8938 26.9512 30.8938C27.2515 30.8938 27.5229 30.9612 27.7654 31.0959C28.008 31.2268 28.1985 31.4155 28.3371 31.6619C28.4796 31.9082 28.5508 32.195 28.5508 32.5223C28.5508 32.8495 28.4776 33.1382 28.3313 33.3884C28.1889 33.6348 27.9945 33.8254 27.7481 33.9601C27.5017 34.0949 27.2284 34.1622 26.9281 34.1622ZM26.9281 33.7003C27.1168 33.7003 27.2938 33.656 27.4594 33.5675C27.6249 33.4789 27.7577 33.3461 27.8578 33.169C27.9618 32.9919 28.0137 32.7763 28.0137 32.5223C28.0137 32.2682 27.9637 32.0526 27.8636 31.8755C27.7635 31.6984 27.6326 31.5675 27.4709 31.4828C27.3092 31.3943 27.1341 31.35 26.9454 31.35C26.753 31.35 26.5759 31.3943 26.4142 31.4828C26.2563 31.5675 26.1293 31.6984 26.0331 31.8755C25.9368 32.0526 25.8887 32.2682 25.8887 32.5223C25.8887 32.7802 25.9349 32.9977 26.0273 33.1748C26.1235 33.3519 26.2506 33.4847 26.4084 33.5732C26.5662 33.6579 26.7395 33.7003 26.9281 33.7003Z" fill="white"/>
<path d="M30.7835 30.8881C31.1685 30.8881 31.4803 31.0055 31.719 31.2403C31.9577 31.4713 32.077 31.8062 32.077 32.2451V34.1103H31.5573V32.3202C31.5573 32.0045 31.4784 31.7639 31.3205 31.5983C31.1627 31.4289 30.9471 31.3442 30.6738 31.3442C30.3966 31.3442 30.1753 31.4309 30.0097 31.6041C29.848 31.7773 29.7672 32.0295 29.7672 32.3606V34.1103H29.2417V30.9458H29.7672V31.3962C29.8711 31.2345 30.0116 31.1094 30.1887 31.0209C30.3697 30.9323 30.5679 30.8881 30.7835 30.8881Z" fill="white"/>
<path d="M28.5261 23.3423C28.3468 23.12 26.8017 22.9285 25.8593 23.5902C25.7155 23.6917 25.739 23.8321 25.9009 23.8132C26.4309 23.7508 27.6132 23.609 27.8228 23.8777C28.0331 24.1471 27.5883 25.2595 27.3888 25.7553C27.3277 25.9058 27.458 25.9662 27.5937 25.8534C28.4798 25.1158 28.7068 23.5667 28.5261 23.3423Z" fill="#FF8000"/>
<path d="M26.9002 24.2756C25.0542 25.0595 23.0464 25.437 21.2192 25.437C18.514 25.437 15.8922 24.6961 13.7741 23.4627C13.5894 23.3539 13.4517 23.544 13.6055 23.6831C15.5691 25.4572 18.1641 26.5239 21.0465 26.5239C23.1035 26.5239 25.4902 25.877 27.1387 24.6625C27.4108 24.461 27.179 24.1587 26.9002 24.2756Z" fill="#FF8000"/>
<path d="M27.5529 20.0757C26.999 19.3062 26.4126 18.685 26.4126 17.2689V12.55C26.4126 10.5544 26.554 8.71872 25.0822 7.34198C23.9187 6.22715 21.995 5.83545 20.5186 5.83545C17.6399 5.83545 14.4275 6.90857 13.7484 10.4686C13.6789 10.8487 13.957 11.0481 14.1981 11.1037L17.1416 11.4189C17.4105 11.4073 17.6121 11.1384 17.6654 10.865C17.9134 9.63887 18.9471 9.04784 20.1014 9.04784C20.7225 9.04784 21.4271 9.2773 21.798 9.83588C22.2198 10.457 22.1618 11.31 22.1618 12.0285V12.4178C20.4096 12.6218 18.1151 12.7493 16.4695 13.4724C14.5782 14.2859 13.2408 15.9594 13.2408 18.4162C13.2408 21.5613 15.2248 23.1351 17.772 23.1351C19.9275 23.1351 21.105 22.6275 22.7645 20.9332C23.3138 21.7305 23.4945 22.1199 24.5004 22.9543C24.7276 23.0748 25.015 23.0609 25.2166 22.8848L25.2259 22.8894C25.8285 22.3563 26.9248 21.3945 27.546 20.8799C27.7916 20.6713 27.7499 20.3468 27.5529 20.0757ZM22.1618 15.4981C22.1618 16.6779 22.1943 17.6606 21.5963 18.7082C21.1165 19.5611 20.354 20.0826 19.5011 20.0826C18.3399 20.0826 17.6654 19.1996 17.6654 17.89C17.6654 15.3104 19.9762 14.8422 22.1618 14.8422V15.4981Z" fill="#FFFBF7"/>
</svg>
