<svg width="51" height="51" viewBox="0 0 51 51" fill="none" xmlns="http://www.w3.org/2000/svg">
<path d="M0.5 25.5781C0.5 11.771 11.6929 0.578125 25.5 0.578125C39.3071 0.578125 50.5 11.771 50.5 25.5781C50.5 39.3852 39.3071 50.5781 25.5 50.5781C11.6929 50.5781 0.5 39.3852 0.5 25.5781Z" fill="#F9FAFB"/>
<path d="M30.219 15.6289C30.2262 15.6984 30.2347 15.7956 30.241 15.9145C30.2535 16.1508 30.2575 16.4794 30.2229 16.8491C30.1563 17.561 29.9342 18.5593 29.2077 19.2858C28.4812 20.0123 27.4829 20.2345 26.771 20.3011C26.4013 20.3356 26.0727 20.3316 25.8363 20.3191C25.7175 20.3128 25.6203 20.3043 25.5508 20.2971L25.4308 20.2827C25.1023 20.235 24.8432 19.9763 24.7955 19.6478L24.781 19.5273C24.7738 19.4579 24.7653 19.3606 24.759 19.2418C24.7466 19.0054 24.7425 18.6768 24.7771 18.3071C24.8437 17.5952 25.0658 16.5969 25.7923 15.8704C26.5188 15.144 27.5171 14.9218 28.229 14.8552C28.5987 14.8206 28.9273 14.8247 29.1637 14.8372C29.2825 14.8434 29.3797 14.852 29.4492 14.8592L29.5692 14.8735C29.8977 14.9213 30.1568 15.1799 30.2045 15.5085L30.219 15.6289Z" fill="#151B1F"/>
<path d="M18.2786 22.6689C19.2609 21.4678 20.6342 20.8281 22.1404 20.8281C23.1438 20.8281 24.0261 21.2302 24.6901 21.6624C25.3945 22.1208 26.1049 22.1208 26.8092 21.6624C27.4733 21.2302 28.3555 20.8281 29.3589 20.8281C31.1963 20.8281 32.8163 21.7777 33.7853 23.4988C33.891 23.6865 33.9109 23.9106 33.8399 24.1139C33.7689 24.3173 33.6139 24.4804 33.4143 24.5615C32.3732 24.9849 31.6557 25.9831 31.6557 27.1325C31.6557 28.3869 32.5114 29.4622 33.7065 29.8045C33.903 29.8607 34.0681 29.9948 34.1634 30.1756C34.2588 30.3564 34.2762 30.5683 34.2116 30.7623C33.7992 32.0016 33.1749 33.177 32.4333 34.127C31.7 35.0662 30.8066 35.8422 29.8335 36.191C28.6815 36.6039 27.598 36.005 26.9145 35.5151C26.6845 35.3503 26.4469 35.2014 26.2252 35.0963C25.9932 34.9864 25.8354 34.9517 25.7497 34.9517C25.6639 34.9517 25.5061 34.9864 25.2742 35.0963C25.0525 35.2014 24.8148 35.3503 24.5848 35.5151C23.9013 36.005 22.8178 36.6039 21.6659 36.191C20.3106 35.7053 19.0899 34.3843 18.2243 32.8643C17.3459 31.3219 16.75 29.4324 16.75 27.6375C16.75 25.5568 17.304 23.8605 18.2786 22.6689Z" fill="#151B1F"/>
</svg>
