<svg width="9" height="14" viewBox="0 0 9 14" fill="none" xmlns="http://www.w3.org/2000/svg">
<path opacity="0.4" d="M0.694858 0.407048C1.02237 -0.0376458 1.64837 -0.132638 2.09306 0.194877C2.43847 0.449269 2.76681 0.703716 3.05277 0.926886C3.62364 1.3724 4.38817 1.98573 5.15563 2.65208C5.91813 3.31412 6.70639 4.04815 7.31189 4.73344C7.61363 5.07494 7.89112 5.42789 8.0986 5.77206C8.28954 6.08878 8.5 6.52398 8.5 7.0001C8.5 7.47623 8.28954 7.91146 8.0986 8.22818C7.89112 8.57235 7.61363 8.9253 7.31189 9.2668C6.70639 9.95209 5.91813 10.6861 5.15563 11.3482C4.38817 12.0145 3.62364 12.6278 3.05277 13.0734C2.76681 13.2965 2.43847 13.551 2.09307 13.8054C1.64837 14.1329 1.02237 14.0379 0.694859 13.5932C0.563204 13.4144 0.499832 13.2064 0.500005 13.0002L0.500005 7.00012L0.500004 1.00007C0.499831 0.79387 0.563203 0.585806 0.694858 0.407048Z" fill="#D0D5DD"/>
<path d="M0.694858 0.407048C1.02237 -0.0376458 1.64837 -0.132638 2.09306 0.194877C2.43847 0.449269 2.76681 0.703716 3.05277 0.926886C3.62364 1.3724 4.38817 1.98573 5.15563 2.65208C5.91813 3.31412 6.70639 4.04815 7.31189 4.73344C7.61363 5.07494 7.89112 5.42789 8.0986 5.77206C8.28954 6.08878 8.5 6.52398 8.5 7.0001C8.5 7.47623 8.28954 7.91146 8.0986 8.22818C7.89112 8.57235 7.61363 8.9253 7.31189 9.2668C6.79727 9.84924 6.15063 10.4669 5.5 11.0456L0.500005 6L0.500004 1.00007C0.499831 0.79387 0.563203 0.585806 0.694858 0.407048Z" fill="#D0D5DD"/>
</svg>
