<svg width="40" height="40" viewBox="0 0 40 40" fill="none" xmlns="http://www.w3.org/2000/svg">
<path d="M0 20C0 8.95431 8.95431 0 20 0C31.0457 0 40 8.95431 40 20C40 31.0457 31.0457 40 20 40C8.95431 40 0 31.0457 0 20Z" fill="#FF8C00"/>
<path d="M27.5154 18.0405C27.8302 15.9391 26.2291 14.8093 24.0415 14.0553L24.7513 11.2081L23.0189 10.777L22.3271 13.5491C21.872 13.4348 21.4048 13.3285 20.9386 13.2222L21.6354 10.4321L19.903 10L19.1932 12.8463C18.8162 12.76 18.4452 12.6758 18.0863 12.5856L18.0883 12.5766L15.6982 11.98L15.2371 13.8308C15.2371 13.8308 16.5233 14.1255 16.4963 14.1436C17.1981 14.319 17.3244 14.7832 17.3033 15.1521L16.4953 18.3954C16.5434 18.4074 16.6056 18.4255 16.6757 18.4526L16.4923 18.4074L15.3594 22.951C15.2732 23.1636 15.0556 23.4834 14.5644 23.3621C14.5824 23.3871 13.3051 23.0483 13.3051 23.0483L12.4449 25.0313L14.7007 25.5938C15.1198 25.699 15.5308 25.8093 15.9348 25.9126L15.218 28.7919L16.9494 29.223L17.6592 26.3758C18.1325 26.5031 18.5916 26.6214 19.0408 26.7337L18.333 29.5689L20.0654 30L20.7822 27.1267C23.7377 27.6861 25.9594 27.4605 26.8948 24.7877C27.6487 22.6362 26.8577 21.3941 25.3027 20.585C26.4356 20.3243 27.2878 19.5794 27.5154 18.0405ZM23.5553 23.5927C23.0209 25.7452 19.3967 24.5812 18.2217 24.2894L19.1741 20.4747C20.3491 20.7685 24.1157 21.3489 23.5553 23.5927ZM24.0916 18.0094C23.6034 19.9674 20.5877 18.9719 19.6102 18.7283L20.4724 15.2694C21.4499 15.5131 24.6009 15.9672 24.0916 18.0094Z" fill="white"/>
</svg>
