<svg width="37" height="26" viewBox="0 0 37 26" fill="none" xmlns="http://www.w3.org/2000/svg">
<path d="M4.5 0C3.43913 0 2.42172 0.421427 1.67157 1.17157C0.921427 1.92172 0.5 2.93913 0.5 4L0.5 22C0.5 23.0609 0.921427 24.0783 1.67157 24.8284C2.42172 25.5786 3.43913 26 4.5 26H10.5V0H4.5ZM32.5 0H26.5V26H32.5C33.5609 26 34.5783 25.5786 35.3284 24.8284C36.0786 24.0783 36.5 23.0609 36.5 22V4C36.5 2.93913 36.0786 1.92172 35.3284 1.17157C34.5783 0.421427 33.5609 0 32.5 0Z" fill="#D52B1E"/>
<path d="M10.5 0H26.5V26H10.5V0Z" fill="#EEEEEE"/>
<path d="M19.1151 17.1131C20.3131 17.2521 21.3871 17.3771 22.5841 17.5141L22.2791 16.5121C22.2567 16.4258 22.2598 16.335 22.288 16.2505C22.3162 16.166 22.3684 16.0915 22.4381 16.0361L25.9171 13.2021L25.1971 12.8631C24.8801 12.7501 24.9671 12.5711 25.0821 12.1411L25.6131 10.2051L23.5921 10.6321C23.3951 10.6621 23.2641 10.5371 23.2341 10.4171L22.9731 9.50606L21.3751 11.3001C21.1481 11.5881 20.6881 11.5881 20.8311 10.9241L21.5141 7.29006L20.5971 7.76506C20.3401 7.90906 20.0831 7.93306 19.9401 7.67606L18.6751 5.31006L17.4101 7.67606C17.2661 7.93306 17.0091 7.90906 16.7521 7.76506L15.8361 7.29006L16.5191 10.9241C16.6631 11.5881 16.2021 11.5881 15.9751 11.3001L14.3771 9.50706L14.1171 10.4181C14.0871 10.5381 13.9551 10.6631 13.7581 10.6331L11.7371 10.2061L12.2681 12.1421C12.3811 12.5721 12.4691 12.7511 12.1521 12.8641L11.4321 13.2031L14.9111 16.0371C15.0491 16.1441 15.1191 16.3371 15.0691 16.5131L14.7641 17.5151L18.2341 17.1141C18.3401 17.1141 18.4101 17.1731 18.4091 17.2951L18.1951 20.9991H19.1511L18.9381 17.2951C18.9401 17.1721 19.0091 17.1131 19.1151 17.1131Z" fill="#D52B1E"/>
</svg>
