<svg width="23" height="19" viewBox="0 0 23 19" fill="none" xmlns="http://www.w3.org/2000/svg">
<path opacity="0.3" d="M1.5 5.5C1.5 3.29086 3.29086 1.5 5.5 1.5H17.5C19.7091 1.5 21.5 3.29086 21.5 5.5V13.5C21.5 15.7091 19.7091 17.5 17.5 17.5H5.5C3.29086 17.5 1.5 15.7091 1.5 13.5V5.5Z" fill="#D0D5DD"/>
<path d="M7 12.25H4C3.58585 12.25 3.25 12.5859 3.25 13C3.25 13.4141 3.58585 13.75 4 13.75H7C7.41415 13.75 7.75 13.4141 7.75 13C7.75 12.5859 7.41415 12.25 7 12.25Z" fill="#D0D5DD"/>
<path d="M19 5H4C3.58585 5 3.25 5.33585 3.25 5.75C3.25 6.16415 3.58585 6.5 4 6.5H19C19.4142 6.5 19.75 6.16415 19.75 5.75C19.75 5.33585 19.4142 5 19 5Z" fill="#D0D5DD"/>
<path d="M1.5 11.5C1.5 14.3284 1.5 15.7426 2.42493 16.6213C3.34985 17.5 4.8385 17.5 7.81579 17.5L15.1842 17.5C18.1615 17.5 19.6501 17.5 20.5751 16.6213C21.5 15.7426 21.5 14.3284 21.5 11.5L21.5 7.5C21.5 4.67157 21.5 3.25736 20.5751 2.37868C19.6501 1.5 18.1615 1.5 15.1842 1.5L7.81579 1.5C4.8385 1.5 3.34985 1.5 2.42493 2.37868C1.5 3.25736 1.5 4.67157 1.5 7.5L1.5 11.5Z" stroke="#D0D5DD" stroke-width="1.5"/>
</svg>
