<svg width="21" height="25" viewBox="0 0 21 25" fill="none" xmlns="http://www.w3.org/2000/svg">
<path d="M18 -2.67029e-05C19.6569 -2.67029e-05 21 1.34312 21 2.99997V24.4687L15.1875 21.75H3C1.34315 21.75 0 20.4068 0 18.75V2.99997C1.6912e-07 1.34312 1.34315 -2.66304e-05 3 -2.67029e-05H18ZM15.9297 13.084C15.0493 15.1383 12.8478 16.6054 10.5 16.6054C8.15217 16.6054 5.95075 15.285 5.07031 13.084L3.75 13.6709C4.92391 16.4589 7.56522 18.2197 10.5 18.2197C13.4348 18.2197 16.0761 16.6056 17.25 13.6709L15.9297 13.084Z" fill="white"/>
</svg>
