<svg width="18" height="19" viewBox="0 0 18 19" fill="none" xmlns="http://www.w3.org/2000/svg">
<path d="M9.00008 18.5363C4.05253 18.5363 0.041748 14.5255 0.041748 9.57796C0.041748 4.63041 4.05253 0.619629 9.00008 0.619629C13.9476 0.619629 17.9584 4.63041 17.9584 9.57796C17.9584 14.5255 13.9476 18.5363 9.00008 18.5363Z" fill="#009A51"/>
<path fill-rule="evenodd" clip-rule="evenodd" d="M12.9478 7.64107C13.2588 7.30181 13.2359 6.77467 12.8966 6.46367C12.5573 6.15268 12.0302 6.1756 11.7192 6.51486L7.72399 10.8733L6.25608 9.40538C5.93065 9.07994 5.40301 9.07994 5.07757 9.40538C4.75214 9.73082 4.75214 10.2585 5.07757 10.5839L7.16091 12.6672C7.32163 12.8279 7.54103 12.916 7.76827 12.9111C7.99551 12.9062 8.21087 12.8086 8.36446 12.6411L12.9478 7.64107Z" fill="#E6F5EE"/>
</svg>
