<svg width="8" height="14" viewBox="0 0 8 14" fill="none" xmlns="http://www.w3.org/2000/svg">
<path opacity="0.4" d="M7.80514 0.407047C7.47763 -0.0376464 6.85163 -0.132638 6.40694 0.194877C6.06153 0.449269 5.73319 0.703715 5.44723 0.926886C4.87636 1.3724 4.11183 1.98572 3.34437 2.65208C2.58187 3.31412 1.79361 4.04815 1.18811 4.73344C0.886373 5.07494 0.608877 5.42789 0.401397 5.77206C0.210464 6.08878 3.93391e-06 6.52398 0 7.0001C3.93391e-06 7.47623 0.210464 7.91146 0.401397 8.22818C0.608877 8.57235 0.886373 8.9253 1.18811 9.2668C1.79361 9.95209 2.58187 10.6861 3.34437 11.3482C4.11183 12.0145 4.87636 12.6278 5.44723 13.0734C5.73319 13.2965 6.06153 13.551 6.40694 13.8054C6.85163 14.1329 7.47763 14.0379 7.80514 13.5932C7.9368 13.4144 8.00017 13.2064 8 13.0002V7.00012V1.00007C8.00017 0.793869 7.9368 0.585806 7.80514 0.407047Z" fill="#151B1F"/>
<path d="M7.80514 0.407047C7.47763 -0.0376464 6.85163 -0.132638 6.40694 0.194877C6.06153 0.449269 5.73319 0.703715 5.44723 0.926886C4.87636 1.3724 4.11183 1.98572 3.34437 2.65208C2.58187 3.31412 1.79361 4.04815 1.18811 4.73344C0.886373 5.07494 0.608877 5.42789 0.401397 5.77206C0.210464 6.08878 3.93391e-06 6.52398 0 7.0001C3.93391e-06 7.47623 0.210464 7.91146 0.401397 8.22818C0.608877 8.57235 0.886373 8.9253 1.18811 9.2668C1.6563 9.79669 2.23377 10.3557 2.82409 10.8881L8 5.71218V1.00007C8.00017 0.793869 7.9368 0.585806 7.80514 0.407047Z" fill="#151B1F"/>
</svg>
