<svg width="23" height="21" viewBox="0 0 23 21" fill="none" xmlns="http://www.w3.org/2000/svg">
<path d="M1.5 6.57812C1.5 6.57812 5.97715 1.57812 11.5 1.57812C17.0228 1.57812 21.5 6.57812 21.5 6.57812" stroke="#151B1F" stroke-width="1.5" stroke-linecap="round"/>
<path opacity="0.3" d="M21.044 11.6231C21.348 12.0494 21.5 12.2626 21.5 12.5781C21.5 12.8937 21.348 13.1068 21.044 13.5331C19.6779 15.4487 16.1892 19.5781 11.5 19.5781C6.81078 19.5781 3.3221 15.4487 1.95604 13.5331C1.65201 13.1068 1.5 12.8937 1.5 12.5781C1.5 12.2626 1.65201 12.0494 1.95604 11.6231C3.3221 9.70757 6.81078 5.57813 11.5 5.57813C16.1892 5.57813 19.6779 9.70757 21.044 11.6231Z" fill="#151B1F"/>
<path d="M21.044 11.6231C21.348 12.0494 21.5 12.2626 21.5 12.5781C21.5 12.8937 21.348 13.1068 21.044 13.5331C19.6779 15.4487 16.1892 19.5781 11.5 19.5781C6.81078 19.5781 3.3221 15.4487 1.95604 13.5331C1.65201 13.1068 1.5 12.8937 1.5 12.5781C1.5 12.2626 1.65201 12.0494 1.95604 11.6231C3.3221 9.70757 6.81078 5.57813 11.5 5.57813C16.1892 5.57813 19.6779 9.70757 21.044 11.6231Z" stroke="#151B1F" stroke-width="1.5"/>
<path d="M14.5 12.5781C14.5 10.9213 13.1569 9.57812 11.5 9.57812C9.84315 9.57812 8.5 10.9213 8.5 12.5781C8.5 14.235 9.84315 15.5781 11.5 15.5781C13.1569 15.5781 14.5 14.235 14.5 12.5781Z" fill="white"/>
<path d="M14.5 12.5781C14.5 10.9213 13.1569 9.57812 11.5 9.57812C9.84315 9.57812 8.5 10.9213 8.5 12.5781C8.5 14.235 9.84315 15.5781 11.5 15.5781C13.1569 15.5781 14.5 14.235 14.5 12.5781Z" stroke="#151B1F" stroke-width="1.5"/>
</svg>
