<svg width="51" height="51" viewBox="0 0 51 51" fill="none" xmlns="http://www.w3.org/2000/svg">
<path d="M0.5 25.5781C0.5 11.771 11.6929 0.578125 25.5 0.578125C39.3071 0.578125 50.5 11.771 50.5 25.5781C50.5 39.3852 39.3071 50.5781 25.5 50.5781C11.6929 50.5781 0.5 39.3852 0.5 25.5781Z" fill="#F9FAFB"/>
<g clip-path="url(#clip0_2_2635)">
<path d="M37.5 25.5781C37.5 18.9508 32.1274 13.5781 25.5 13.5781C18.8726 13.5781 13.5 18.9508 13.5 25.5781C13.5 31.2056 17.3746 35.9279 22.6013 37.2248V29.2453H20.1269V25.5781H22.6013V23.998C22.6013 19.9136 24.4498 18.0205 28.4597 18.0205C29.22 18.0205 30.5318 18.1698 31.0685 18.3186V21.6426C30.7853 21.6128 30.2933 21.598 29.6822 21.598C27.7147 21.598 26.9544 22.3434 26.9544 24.2812V25.5781H30.8741L30.2006 29.2453H26.9544V37.4903C32.8963 36.7727 37.5005 31.7135 37.5005 25.5781H37.5Z" fill="#0866FF"/>
<path d="M30.2002 29.2453L30.8737 25.5781H26.954V24.2811C26.954 22.3434 27.7143 21.5979 29.6818 21.5979C30.2929 21.5979 30.7849 21.6128 31.0681 21.6426V18.3186C30.5314 18.1693 29.2196 18.0205 28.4593 18.0205C24.4493 18.0205 22.6009 19.9136 22.6009 23.9979V25.5781H20.1265V29.2453H22.6009V37.2248C23.5292 37.4552 24.5002 37.5781 25.4996 37.5781C25.9916 37.5781 26.4769 37.5479 26.9535 37.4903V29.2453H30.1997H30.2002Z" fill="white"/>
</g>
<defs>
<clipPath id="clip0_2_2635">
<rect width="24" height="24" fill="white" transform="translate(13.5 13.5781)"/>
</clipPath>
</defs>
</svg>
