<svg width="24" height="25" viewBox="0 0 24 25" fill="none" xmlns="http://www.w3.org/2000/svg">
<path d="M14 17C14.3852 17.0002 14.7556 17.1486 15.0344 17.4144C15.3132 17.6802 15.479 18.0431 15.4975 18.4279C15.516 18.8127 15.3858 19.1898 15.1338 19.4812C14.8818 19.7726 14.5274 19.9558 14.144 19.993L14 20H10C9.61478 19.9998 9.24441 19.8514 8.96561 19.5856C8.68682 19.3198 8.52099 18.9569 8.50248 18.5721C8.48396 18.1873 8.61419 17.8102 8.86618 17.5188C9.11816 17.2274 9.47258 17.0442 9.856 17.007L10 17H14ZM17 11C17.3978 11 17.7794 11.158 18.0607 11.4393C18.342 11.7206 18.5 12.1022 18.5 12.5C18.5 12.8978 18.342 13.2794 18.0607 13.5607C17.7794 13.842 17.3978 14 17 14H7C6.60218 14 6.22064 13.842 5.93934 13.5607C5.65804 13.2794 5.5 12.8978 5.5 12.5C5.5 12.1022 5.65804 11.7206 5.93934 11.4393C6.22064 11.158 6.60218 11 7 11H17ZM20 5C20.3978 5 20.7794 5.15804 21.0607 5.43934C21.342 5.72064 21.5 6.10218 21.5 6.5C21.5 6.89782 21.342 7.27936 21.0607 7.56066C20.7794 7.84196 20.3978 8 20 8H4C3.60218 8 3.22064 7.84196 2.93934 7.56066C2.65804 7.27936 2.5 6.89782 2.5 6.5C2.5 6.10218 2.65804 5.72064 2.93934 5.43934C3.22064 5.15804 3.60218 5 4 5H20Z" fill="#D0D5DD"/>
</svg>
