<svg width="20" height="15" viewBox="0 0 20 15" fill="none" xmlns="http://www.w3.org/2000/svg">
<path d="M12 12C12.3852 12.0002 12.7556 12.1486 13.0344 12.4144C13.3132 12.6802 13.479 13.0431 13.4975 13.4279C13.516 13.8127 13.3858 14.1898 13.1338 14.4812C12.8818 14.7726 12.5274 14.9558 12.144 14.993L12 15H8C7.61478 14.9998 7.24441 14.8514 6.96561 14.5856C6.68682 14.3198 6.52099 13.9569 6.50248 13.5721C6.48396 13.1873 6.61419 12.8102 6.86618 12.5188C7.11816 12.2274 7.47258 12.0442 7.856 12.007L8 12H12ZM15 6C15.3978 6 15.7794 6.15804 16.0607 6.43934C16.342 6.72064 16.5 7.10218 16.5 7.5C16.5 7.89782 16.342 8.27936 16.0607 8.56066C15.7794 8.84196 15.3978 9 15 9H5C4.60218 9 4.22064 8.84196 3.93934 8.56066C3.65804 8.27936 3.5 7.89782 3.5 7.5C3.5 7.10218 3.65804 6.72064 3.93934 6.43934C4.22064 6.15804 4.60218 6 5 6H15ZM18 0C18.3978 0 18.7794 0.158035 19.0607 0.43934C19.342 0.720644 19.5 1.10218 19.5 1.5C19.5 1.89782 19.342 2.27936 19.0607 2.56066C18.7794 2.84196 18.3978 3 18 3H2C1.60218 3 1.22064 2.84196 0.93934 2.56066C0.658035 2.27936 0.5 1.89782 0.5 1.5C0.5 1.10218 0.658035 0.720644 0.93934 0.43934C1.22064 0.158035 1.60218 0 2 0H18Z" fill="#D0D5DD"/>
</svg>
