<svg width="27" height="27" viewBox="0 0 27 27" fill="none" xmlns="http://www.w3.org/2000/svg">
<path d="M12.0931 24.9844H3.65625C1.71762 24.9844 0.140625 23.4074 0.140625 21.4688V3.65625C0.140625 1.71762 1.71762 0.140625 3.65625 0.140625H20.5312C22.4699 0.140625 24.0469 1.71762 24.0469 3.65625V15.1125C24.0469 15.5009 23.7319 15.8156 23.3438 15.8156C22.9556 15.8156 22.6406 15.5009 22.6406 15.1125V3.65625C22.6406 2.49307 21.6944 1.54688 20.5312 1.54688H3.65625C2.49307 1.54688 1.54688 2.49307 1.54688 3.65625V21.4688C1.54688 22.6319 2.49307 23.5781 3.65625 23.5781H12.0931C12.4815 23.5781 12.7962 23.8928 12.7962 24.2812C12.7962 24.6697 12.4815 24.9844 12.0931 24.9844Z" fill="#293A4C"/>
<path d="M6.00069 18.8105C5.78188 18.8105 5.5665 18.7089 5.42917 18.5178C4.42255 17.1182 3.89062 15.464 3.89062 13.7344V11.3906C3.89062 6.86746 7.57059 3.1875 12.0937 3.1875C13.5357 3.1875 14.9539 3.56722 16.1958 4.28545C16.5318 4.47977 16.6467 4.91007 16.4526 5.24607C16.2576 5.58184 15.8273 5.69651 15.4917 5.50264C14.4636 4.90801 13.2887 4.59375 12.0938 4.59375C8.34604 4.59375 5.29688 7.64292 5.29688 11.3906V13.7344C5.29688 15.1676 5.73748 16.5377 6.57083 17.697C6.79766 18.0122 6.72579 18.4516 6.41039 18.6782C6.28633 18.7675 6.14282 18.8105 6.00069 18.8105Z" fill="#293A4C"/>
<path d="M12.0937 21.9376C10.364 21.9376 8.70989 21.4057 7.31028 20.3991C6.99488 20.1725 6.92301 19.733 7.14983 19.4179C7.37619 19.1027 7.81542 19.0304 8.13104 19.2574C9.29033 20.0908 10.6604 20.5314 12.0937 20.5314C12.4821 20.5314 12.7968 20.8461 12.7968 21.2345C12.7968 21.6229 12.4821 21.9376 12.0937 21.9376Z" fill="#293A4C"/>
<path d="M19.5759 14.9437C19.5562 14.9437 19.536 14.943 19.5159 14.9412C19.1291 14.9087 18.8416 14.5686 18.8741 14.1815C18.8869 14.0325 18.8906 13.8833 18.8906 13.7343V11.3906C18.8906 10.0152 18.4841 8.69364 17.7151 7.56869C17.4958 7.24803 17.5782 6.8104 17.8986 6.59136C18.2191 6.37233 18.6576 6.45472 18.8759 6.77493C19.8057 8.13494 20.2968 9.73094 20.2968 11.3906V13.7343C20.2968 13.9227 20.2914 14.1113 20.2758 14.2996C20.2447 14.6665 19.9375 14.9437 19.5759 14.9437Z" fill="#293A4C"/>
<path d="M12.0938 19.1251C9.12126 19.1251 6.70312 16.7069 6.70312 13.7345V11.3907C6.70312 10.5683 6.88463 9.778 7.24237 9.04146C7.41174 8.69218 7.83243 8.54662 8.18216 8.71644C8.53143 8.88605 8.677 9.30696 8.50717 9.65623C8.24327 10.1994 8.10938 10.783 8.10938 11.3907V13.7345C8.10938 15.9315 9.89671 17.7188 12.0938 17.7188C12.4822 17.7188 12.7969 18.0335 12.7969 18.422C12.7969 18.8104 12.4822 19.1251 12.0938 19.1251Z" fill="#293A4C"/>
<path d="M16.7812 13.5C16.3931 13.5 16.0781 13.1853 16.0781 12.7969V11.3906C16.0781 9.19359 14.2906 7.40625 12.0938 7.40625C11.7053 7.40625 11.3906 7.09154 11.3906 6.70312C11.3906 6.31471 11.7053 6 12.0938 6C15.066 6 17.4844 8.41814 17.4844 11.3906V12.7969C17.4844 13.1853 17.1694 13.5 16.7812 13.5Z" fill="#293A4C"/>
<path d="M9.28175 8.34617C9.06866 8.34617 8.85786 8.24959 8.71962 8.06625C8.48616 7.75612 8.54796 7.31506 8.85809 7.08137C9.03021 6.95183 9.21171 6.83167 9.39757 6.72386C9.73357 6.52908 10.1634 6.64352 10.3584 6.97975C10.5532 7.31575 10.4385 7.74582 10.1025 7.94059C9.96542 8.02001 9.83153 8.10882 9.70449 8.20472C9.57769 8.30017 9.42916 8.34617 9.28175 8.34617Z" fill="#293A4C"/>
<path d="M10.2188 14.4375C9.83034 14.4375 9.51562 14.1228 9.51562 13.7344V11.3906C9.51562 9.96904 10.6722 8.8125 12.0938 8.8125C12.8328 8.8125 13.5375 9.13133 14.0273 9.68706C14.2841 9.97819 14.2562 10.4227 13.9649 10.6795C13.6733 10.9356 13.2297 10.9084 12.9724 10.6168C12.7495 10.3639 12.4293 10.2188 12.0938 10.2188C11.4476 10.2188 10.9219 10.7445 10.9219 11.3906V13.7344C10.9219 14.1228 10.6072 14.4375 10.2188 14.4375Z" fill="#293A4C"/>
<path d="M12.0938 16.3125C11.6408 16.3125 11.1945 16.1928 10.8038 15.9662C10.4678 15.7714 10.3531 15.3411 10.5479 15.0054C10.7427 14.6691 11.173 14.5547 11.5087 14.7495C11.6857 14.852 11.888 14.9062 12.0938 14.9062C12.7399 14.9062 13.2656 14.3805 13.2656 13.7344V12.7969C13.2656 12.4085 13.5804 12.0938 13.9688 12.0938C14.357 12.0938 14.6719 12.4085 14.6719 12.7969V13.7344C14.6719 15.156 13.5154 16.3125 12.0938 16.3125Z" fill="#293A4C"/>
<path d="M20.1819 13.5049C16.5002 13.5049 13.505 16.5003 13.505 20.1821C13.505 23.8638 16.5002 26.8592 20.1819 26.8592C23.8637 26.8592 26.8593 23.8638 26.8593 20.1821C26.8593 16.5003 23.8637 13.5049 20.1819 13.5049ZM23.3662 18.8387L19.7439 22.5128C19.6111 22.6471 19.4308 22.7222 19.2431 22.7222C19.2289 22.7222 19.2142 22.7217 19.2 22.7208C18.9973 22.7085 18.8096 22.6089 18.6855 22.4478L16.9414 20.18C16.7048 19.8721 16.7624 19.4306 17.0705 19.194C17.3786 18.9573 17.8194 19.015 18.0565 19.3226L19.3085 20.9511L22.3646 17.8513C22.6374 17.5749 23.0828 17.5717 23.3588 17.8443C23.6353 18.1171 23.6385 18.5623 23.3662 18.8387Z" fill="#1D6A4B"/>
</svg>
