<svg width="51" height="51" viewBox="0 0 51 51" fill="none" xmlns="http://www.w3.org/2000/svg">
<path d="M0.5 25.5781C0.5 11.771 11.6929 0.578125 25.5 0.578125C39.3071 0.578125 50.5 11.771 50.5 25.5781C50.5 39.3852 39.3071 50.5781 25.5 50.5781C11.6929 50.5781 0.5 39.3852 0.5 25.5781Z" fill="#F9FAFB"/>
<g clip-path="url(#clip0_39_566)">
<path d="M37.0081 25.8023C37.0081 24.819 36.9297 24.1015 36.7601 23.3574H25.7297V27.7954H32.2043C32.0738 28.8983 31.3689 30.5593 29.8024 31.6753L29.7805 31.8239L33.2681 34.5741L33.5097 34.5987C35.7288 32.5125 37.0081 29.4431 37.0081 25.8023Z" fill="#4285F4"/>
<path d="M25.7298 37.4955C28.9018 37.4955 31.5647 36.4324 33.5098 34.5988L29.8025 31.6755C28.8105 32.3797 27.4789 32.8713 25.7298 32.8713C22.623 32.8713 19.9862 30.7853 19.0463 27.9019L18.9085 27.9138L15.282 30.7706L15.2346 30.9048C17.1665 34.8113 21.1349 37.4955 25.7298 37.4955Z" fill="#34A853"/>
<path d="M19.0465 27.9019C18.7984 27.1578 18.6549 26.3605 18.6549 25.5367C18.6549 24.7129 18.7984 23.9156 19.0334 23.1715L19.0268 23.0131L15.3549 20.1104L15.2348 20.1685C14.4386 21.7896 13.9817 23.61 13.9817 25.5367C13.9817 27.4634 14.4386 29.2838 15.2348 30.9049L19.0465 27.9019Z" fill="#FBBC05"/>
<path d="M25.7298 18.2022C27.9358 18.2022 29.4239 19.1721 30.2724 19.9827L33.588 16.6874C31.5517 14.7607 28.9018 13.5781 25.7298 13.5781C21.1349 13.5781 17.1665 16.2622 15.2346 20.1687L19.0332 23.1717C19.9862 20.2883 22.623 18.2022 25.7298 18.2022Z" fill="#EB4335"/>
</g>
<defs>
<clipPath id="clip0_39_566">
<rect width="23.04" height="24" fill="white" transform="translate(13.98 13.5781)"/>
</clipPath>
</defs>
</svg>
