<svg width="19" height="23" viewBox="0 0 19 23" fill="none" xmlns="http://www.w3.org/2000/svg">
<path opacity="0.3" d="M1 9.5C1 5.72876 1 3.84315 2.2448 2.67157C3.48959 1.5 5.49306 1.5 9.5 1.5L10.2727 1.5C13.5339 1.5 15.1645 1.5 16.2969 2.29784C16.6214 2.52643 16.9094 2.79752 17.1523 3.10289C18 4.16867 18 5.70336 18 8.77273V11.3182C18 14.2814 18 15.7629 17.5311 16.9462C16.7772 18.8486 15.1829 20.3491 13.1616 21.0586C11.9044 21.5 10.3302 21.5 7.18182 21.5C5.38275 21.5 4.48322 21.5 3.76478 21.2478C2.60979 20.8424 1.69875 19.9849 1.26796 18.8979C1 18.2217 1 17.3751 1 15.6818L1 9.5Z" fill="#D0D5DD"/>
<path d="M1 9.5C1 5.72876 1 3.84315 2.2448 2.67157C3.48959 1.5 5.49306 1.5 9.5 1.5L10.2727 1.5C13.5339 1.5 15.1645 1.5 16.2969 2.29784C16.6214 2.52643 16.9094 2.79752 17.1523 3.10289C18 4.16867 18 5.70336 18 8.77273V11.3182C18 14.2814 18 15.7629 17.5311 16.9462C16.7772 18.8486 15.1829 20.3491 13.1616 21.0586C11.9044 21.5 10.3302 21.5 7.18182 21.5C5.38275 21.5 4.48322 21.5 3.76478 21.2478C2.60979 20.8424 1.69875 19.9849 1.26796 18.8979C1 18.2217 1 17.3751 1 15.6818L1 9.5Z" stroke="#D0D5DD" stroke-width="1.5" stroke-linejoin="round"/>
<path d="M5.5 6.5L12.5 6.5" stroke="#D0D5DD" stroke-width="1.5" stroke-linecap="round" stroke-linejoin="round"/>
<path d="M5.5 10.5H8.5" stroke="#D0D5DD" stroke-width="1.5" stroke-linecap="round" stroke-linejoin="round"/>
</svg>
