<svg width="22" height="23" viewBox="0 0 22 23" fill="none" xmlns="http://www.w3.org/2000/svg">
<path opacity="0.3" d="M1.35164 12.7135C0.998615 10.4162 0.822105 9.26763 1.25641 8.24938C1.69071 7.23112 2.65427 6.53443 4.58138 5.14106L6.02123 4.1C8.41853 2.36667 9.61718 1.5 11.0002 1.5C12.3833 1.5 13.582 2.36667 15.9793 4.1L17.4191 5.14106C19.3462 6.53443 20.3098 7.23112 20.7441 8.24938C21.1784 9.26763 21.0019 10.4162 20.6489 12.7135L20.3478 14.6724C19.8474 17.9289 19.5972 19.5572 18.4292 20.5286C17.2613 21.5 15.5539 21.5 12.1391 21.5H9.86143C6.44658 21.5 4.73915 21.5 3.57124 20.5286C2.40333 19.5572 2.15311 17.9289 1.65267 14.6724L1.35164 12.7135Z" fill="#1D6A4B"/>
<path d="M14.0002 16.5C13.2007 17.1224 12.1505 17.5 11.0002 17.5C9.85 17.5 8.79977 17.1224 8.00024 16.5" stroke="#1D6A4B" stroke-width="1.5" stroke-linecap="round"/>
<path d="M1.35164 12.7135C0.998615 10.4162 0.822105 9.26763 1.25641 8.24938C1.69071 7.23112 2.65427 6.53443 4.58138 5.14106L6.02123 4.1C8.41853 2.36667 9.61718 1.5 11.0002 1.5C12.3833 1.5 13.582 2.36667 15.9793 4.1L17.4191 5.14106C19.3462 6.53443 20.3098 7.23112 20.7441 8.24938C21.1784 9.26763 21.0019 10.4162 20.6489 12.7135L20.3478 14.6724C19.8474 17.9289 19.5972 19.5572 18.4292 20.5286C17.2613 21.5 15.5539 21.5 12.1391 21.5H9.86143C6.44658 21.5 4.73915 21.5 3.57124 20.5286C2.40333 19.5572 2.15311 17.9289 1.65267 14.6724L1.35164 12.7135Z" stroke="#1D6A4B" stroke-width="1.5" stroke-linejoin="round"/>
</svg>
