<svg width="161" height="39" viewBox="0 0 161 39" fill="none" xmlns="http://www.w3.org/2000/svg">
<path d="M66.1621 7.90689V13.8095C66.1621 13.9466 66.0508 14.0579 65.9137 14.0579H54.9719V20.0307H64.8226C64.9596 20.0307 65.071 20.142 65.071 20.2791V26.0279C65.071 26.165 64.9596 26.2763 64.8226 26.2763H54.9719V37.2811C54.9719 37.4182 54.8606 37.5295 54.7235 37.5295H48.3731C48.2361 37.5295 48.1248 37.4182 48.1248 37.2811V7.90708C48.1248 7.77001 48.2361 7.65869 48.3731 7.65869H65.9137C66.0508 7.65869 66.1621 7.77001 66.1621 7.90708V7.90689Z" fill="#1D6A4B"/>
<path d="M85.9003 16.7452L86.436 14.9587C86.4588 14.8592 86.5477 14.7848 86.6542 14.7848H91.1483C91.2716 14.7848 91.3718 14.885 91.3718 15.0083V37.2716C91.3718 37.3952 91.2716 37.4952 91.1483 37.4952H86.4342C86.3351 37.4946 86.2446 37.4281 86.2187 37.3273L85.7862 35.6777C84.8598 36.4381 83.8089 37.0453 82.6617 37.4681C81.4391 37.9185 80.106 38.1618 78.6971 38.1618C75.2921 38.1618 72.3201 36.874 70.1976 34.7291C68.0713 32.5809 66.7993 29.5739 66.7993 26.1401C66.7993 22.7211 68.0706 19.7322 70.1946 17.5984C72.318 15.4654 75.2911 14.187 78.6971 14.187C80.1284 14.187 81.4843 14.4375 82.7262 14.9002C83.8956 15.3361 84.964 15.9622 85.9003 16.7453V16.7452ZM75.011 30.3489C76.0487 31.3927 77.508 32.0181 79.1918 32.0181C80.8762 32.0181 82.3345 31.3942 83.37 30.351C84.4102 29.3041 85.0288 27.8308 85.0288 26.1399C85.0288 24.4489 84.4102 22.9757 83.37 21.9286C82.3342 20.886 80.8762 20.2615 79.1918 20.2615C77.508 20.2615 76.0487 20.8875 75.011 21.9308C73.9691 22.9785 73.3484 24.4521 73.3484 26.1399C73.3484 27.828 73.9691 29.3011 75.011 30.3489Z" fill="#1D6A4B"/>
<path d="M105.016 29.2906L110.163 14.9462C110.187 14.8488 110.275 14.7764 110.38 14.7764H116.631C116.659 14.7773 116.687 14.782 116.713 14.7929C116.827 14.8384 116.883 14.9683 116.838 15.0825L107.986 37.3687C107.959 37.4614 107.873 37.5297 107.771 37.5297H102.202C102.113 37.5293 102.03 37.4763 101.994 37.3898L92.9254 15.0951C92.9118 15.0659 92.9043 15.0342 92.9043 15.0005C92.9043 14.8768 93.0047 14.7766 93.1282 14.7766H99.5581C99.6493 14.7775 99.7352 14.8337 99.768 14.9243L105.016 29.291V29.2906Z" fill="#1D6A4B"/>
<path d="M136.052 17.5318C138.197 19.706 139.442 22.7402 139.442 26.0759C139.442 26.3617 139.431 26.6565 139.412 26.9566L139.411 26.9602C139.392 27.2497 139.363 27.5457 139.325 27.8439C139.321 27.965 139.223 28.062 139.101 28.062H122.49C122.765 29.3995 123.344 30.4421 124.172 31.1604C125.062 31.9324 126.25 32.3371 127.666 32.3371C128.666 32.3371 129.573 32.105 130.339 31.6861C131.117 31.2614 131.754 30.641 132.2 29.8752C132.236 29.8002 132.313 29.7483 132.402 29.7483H138.736L138.805 29.7607C138.922 29.799 138.986 29.9256 138.947 30.0422C138.122 32.5247 136.617 34.557 134.657 35.967C132.702 37.3736 130.297 38.1613 127.665 38.1613C124.316 38.1613 121.37 36.8622 119.261 34.7128C117.149 32.5605 115.876 29.5565 115.876 26.1515C115.876 22.7289 117.14 19.7248 119.248 17.5769C121.353 15.4319 124.299 14.1416 127.665 14.1416C131.087 14.1416 133.986 15.4377 136.051 17.5316L136.052 17.5318ZM130.99 20.7774C130.094 20.0948 128.971 19.7393 127.666 19.7393C126.384 19.7393 125.288 20.1097 124.432 20.7907C123.627 21.4311 123.027 22.3501 122.675 23.4972H132.877C132.459 22.3228 131.819 21.4086 130.99 20.7774H130.99Z" fill="#1D6A4B"/>
<path d="M152.895 25.5435L160.452 37.1668C160.482 37.205 160.5 37.2531 160.5 37.3057C160.5 37.4293 160.399 37.5297 160.276 37.5297H153.453C153.377 37.5286 153.303 37.4896 153.262 37.4203L149.038 30.3562L144.71 37.4078C144.673 37.4802 144.597 37.5297 144.511 37.5297H137.874C137.832 37.5289 137.789 37.5169 137.751 37.4919C137.649 37.4242 137.62 37.2849 137.688 37.1824L145.186 25.8493L138.183 15.1332C138.155 15.096 138.139 15.05 138.139 15.0003C138.139 14.8766 138.239 14.7764 138.363 14.7764H145.185C145.261 14.7773 145.335 14.8162 145.377 14.8858L149.06 21.021L152.996 14.8918C153.034 14.8232 153.108 14.7764 153.192 14.7764H159.828C159.872 14.7769 159.915 14.7897 159.954 14.8159C160.056 14.885 160.082 15.0242 160.012 15.1261L152.895 25.5435Z" fill="#1D6A4B"/>
<path fill-rule="evenodd" clip-rule="evenodd" d="M13.9895 0.578125V14.774L37.6422 2.41311C38.5457 1.95413 38.2204 0.567031 37.1918 0.578313L13.9895 0.578125Z" fill="#009A51"/>
<path fill-rule="evenodd" clip-rule="evenodd" d="M13.9896 28.9697L37.6423 16.6086C38.5458 16.15 38.2205 14.7627 37.192 14.774L1.51402 14.7742C0.691197 14.7806 0.232968 15.685 0.666753 16.3627L13.1006 37.2957C13.3458 37.7088 13.9896 37.5388 13.9896 37.052V28.9697Z" fill="#1D6A4B"/>
</svg>
