<svg width="18" height="20" viewBox="0 0 18 20" fill="none" xmlns="http://www.w3.org/2000/svg">
<path opacity="0.3" d="M1.10819 11.9951C0.930976 13.1226 1.72325 13.9052 2.6933 14.2952C6.41226 15.7905 11.5876 15.7905 15.3065 14.2952C16.2766 13.9052 17.0689 13.1226 16.8916 11.9951C16.7827 11.3021 16.2442 10.7251 15.8452 10.1617C15.3227 9.41462 15.2707 8.59978 15.2706 7.73286C15.2706 4.38261 12.4631 1.66669 8.99992 1.66669C5.53669 1.66669 2.72919 4.38261 2.72919 7.73286C2.72911 8.59978 2.67719 9.41462 2.15459 10.1617C1.75562 10.7251 1.2171 11.3021 1.10819 11.9951Z" fill="#D0D5DD" stroke="#D0D5DD" stroke-width="1.5" stroke-linecap="round" stroke-linejoin="round"/>
<path d="M1.10819 11.9951C0.930976 13.1226 1.72325 13.9052 2.6933 14.2952C6.41226 15.7905 11.5876 15.7905 15.3065 14.2952C16.2766 13.9052 17.0689 13.1226 16.8916 11.9951C16.7827 11.3021 16.2442 10.7251 15.8452 10.1617C15.3227 9.41462 15.2707 8.59978 15.2706 7.73286C15.2706 4.38261 12.4631 1.66669 8.99992 1.66669C5.53669 1.66669 2.72919 4.38261 2.72919 7.73286C2.72911 8.59978 2.67719 9.41462 2.15459 10.1617C1.75562 10.7251 1.2171 11.3021 1.10819 11.9951Z" stroke="#D0D5DD" stroke-width="1.5" stroke-linecap="round" stroke-linejoin="round"/>
<path d="M6.5 17.5C7.16345 18.0182 8.03956 18.3333 9 18.3333C9.96044 18.3333 10.8366 18.0182 11.5 17.5" stroke="#D0D5DD" stroke-width="1.5" stroke-linecap="round" stroke-linejoin="round"/>
</svg>
