<svg width="45" height="46" viewBox="0 0 45 46" fill="none" xmlns="http://www.w3.org/2000/svg">
<path d="M0 23C0 10.5736 10.0736 0.5 22.5 0.5C34.9264 0.5 45 10.5736 45 23C45 35.4264 34.9264 45.5 22.5 45.5C10.0736 45.5 0 35.4264 0 23Z" fill="#F9FAFB"/>
<path opacity="0.3" d="M14.1082 24.9951C13.931 26.1226 14.7233 26.9052 15.6933 27.2952C19.4123 28.7905 24.5876 28.7905 28.3065 27.2952C29.2766 26.9052 30.0689 26.1226 29.8916 24.9951C29.7827 24.3021 29.2442 23.7251 28.8452 23.1617C28.3227 22.4146 28.2707 21.5998 28.2706 20.7329C28.2706 17.3826 25.4631 14.6667 21.9999 14.6667C18.5367 14.6667 15.7292 17.3826 15.7292 20.7329C15.7291 21.5998 15.6772 22.4146 15.1546 23.1617C14.7556 23.7251 14.2171 24.3021 14.1082 24.9951Z" fill="#D0D5DD" stroke="#D0D5DD" stroke-width="1.5" stroke-linecap="round" stroke-linejoin="round"/>
<path d="M14.1082 24.9951C13.931 26.1226 14.7233 26.9052 15.6933 27.2952C19.4123 28.7905 24.5876 28.7905 28.3065 27.2952C29.2766 26.9052 30.0689 26.1226 29.8916 24.9951C29.7827 24.3021 29.2442 23.7251 28.8452 23.1617C28.3227 22.4146 28.2707 21.5998 28.2706 20.7329C28.2706 17.3826 25.4631 14.6667 21.9999 14.6667C18.5367 14.6667 15.7292 17.3826 15.7292 20.7329C15.7291 21.5998 15.6772 22.4146 15.1546 23.1617C14.7556 23.7251 14.2171 24.3021 14.1082 24.9951Z" stroke="#D0D5DD" stroke-width="1.5" stroke-linecap="round" stroke-linejoin="round"/>
<path d="M19.5 30.5C20.1634 31.0182 21.0396 31.3333 22 31.3333C22.9604 31.3333 23.8366 31.0182 24.5 30.5" stroke="#D0D5DD" stroke-width="1.5" stroke-linecap="round" stroke-linejoin="round"/>
<circle cx="29.6159" cy="15.4027" r="4.38419" fill="#F83446"/>
</svg>
