<svg width="22" height="22" viewBox="0 0 22 22" fill="none" xmlns="http://www.w3.org/2000/svg">
<path opacity="0.4" d="M1.5 11C1.5 6.52166 1.5 4.28249 2.89124 2.89124C4.28249 1.5 6.52166 1.5 11 1.5C15.4783 1.5 17.7175 1.5 19.1088 2.89124C20.5 4.28249 20.5 6.52166 20.5 11C20.5 15.4783 20.5 17.7175 19.1088 19.1088C17.7175 20.5 15.4783 20.5 11 20.5C6.52166 20.5 4.28249 20.5 2.89124 19.1088C1.5 17.7175 1.5 15.4783 1.5 11Z" fill="#151B1F"/>
<path d="M1.5 11C1.5 6.52166 1.5 4.28249 2.89124 2.89124C4.28249 1.5 6.52166 1.5 11 1.5C15.4783 1.5 17.7175 1.5 19.1088 2.89124C20.5 4.28249 20.5 6.52166 20.5 11C20.5 15.4783 20.5 17.7175 19.1088 19.1088C17.7175 20.5 15.4783 20.5 11 20.5C6.52166 20.5 4.28249 20.5 2.89124 19.1088C1.5 17.7175 1.5 15.4783 1.5 11Z" stroke="#151B1F" stroke-width="1.5" stroke-linejoin="round"/>
<path d="M11.6525 8.2864L11.475 8.84293C11.3295 9.29895 11.2567 9.52697 11.3127 9.70704C11.3579 9.85273 11.4573 9.97831 11.5927 10.0609C11.76 10.1631 12.0131 10.1631 12.5194 10.1631H12.7887C14.5021 10.1631 15.3588 10.1631 15.7634 10.6553C15.8097 10.7116 15.8508 10.7714 15.8864 10.8341C16.1977 11.3832 15.8438 12.1227 15.136 13.6019C14.4865 14.9593 14.1617 15.638 13.5587 16.0375C13.5003 16.0761 13.4403 16.1126 13.3789 16.1468C12.744 16.5 11.9574 16.5 10.3843 16.5H10.0431C8.13715 16.5 7.18419 16.5 6.59209 15.9432C6 15.3864 6 14.4902 6 12.6978V12.0679C6 11.1259 6 10.655 6.17223 10.2239C6.34445 9.79285 6.67424 9.43842 7.3338 8.72954L10.0614 5.79801C10.1298 5.72449 10.164 5.68772 10.1942 5.66225C10.4757 5.42448 10.9102 5.45124 11.1563 5.72152C11.1826 5.75047 11.2115 5.79112 11.2691 5.87241C11.3592 5.99956 11.4043 6.06314 11.4436 6.12613C11.7952 6.69003 11.9016 7.35988 11.7405 7.9958C11.7225 8.06683 11.6992 8.14006 11.6525 8.2864Z" fill="white"/>
<path d="M11.6525 8.2864L11.475 8.84293C11.3295 9.29895 11.2567 9.52697 11.3127 9.70704C11.3579 9.85273 11.4573 9.97831 11.5927 10.0609C11.76 10.1631 12.0131 10.1631 12.5194 10.1631H12.7887C14.5021 10.1631 15.3588 10.1631 15.7634 10.6553C15.8097 10.7116 15.8508 10.7714 15.8864 10.8341C16.1977 11.3832 15.8438 12.1227 15.136 13.6019C14.4865 14.9593 14.1617 15.638 13.5587 16.0375C13.5003 16.0761 13.4403 16.1126 13.3789 16.1468C12.744 16.5 11.9574 16.5 10.3843 16.5H10.0431C8.13715 16.5 7.18419 16.5 6.59209 15.9432C6 15.3864 6 14.4902 6 12.6978V12.0679C6 11.1259 6 10.655 6.17223 10.2239C6.34445 9.79285 6.67424 9.43842 7.3338 8.72954L10.0614 5.79801C10.1298 5.72449 10.164 5.68772 10.1942 5.66225C10.4757 5.42448 10.9102 5.45124 11.1563 5.72152C11.1826 5.75047 11.2115 5.79112 11.2691 5.87241C11.3592 5.99956 11.4043 6.06314 11.4436 6.12613C11.7952 6.69003 11.9016 7.35988 11.7405 7.9958C11.7225 8.06683 11.6992 8.14006 11.6525 8.2864Z" stroke="#151B1F" stroke-width="1.5" stroke-linecap="round" stroke-linejoin="round"/>
</svg>
