<svg width="21" height="23" viewBox="0 0 21 23" fill="none" xmlns="http://www.w3.org/2000/svg">
<path opacity="0.3" d="M1 11.5C1 14.3284 1 15.7426 1.87868 16.6213C2.75736 17.5 4.17157 17.5 7 17.5L14 17.5C16.8284 17.5 18.2426 17.5 19.1213 16.6213C20 15.7426 20 14.3284 20 11.5L20 7.5C20 4.67157 20 3.25736 19.1213 2.37868C18.2426 1.5 16.8284 1.5 14 1.5L7 1.5C4.17157 1.5 2.75736 1.5 1.87868 2.37868C1 3.25736 1 4.67157 1 7.5L1 11.5Z" fill="#D0D5DD"/>
<path d="M10.5 17.5L10.5 21.5" stroke="#D0D5DD" stroke-width="1.5" stroke-linecap="round" stroke-linejoin="round"/>
<path d="M8.5 17.5L3.5 21.5" stroke="#D0D5DD" stroke-width="1.5" stroke-linecap="round" stroke-linejoin="round"/>
<path d="M12.5 17.5L17.5 21.5" stroke="#D0D5DD" stroke-width="1.5" stroke-linecap="round" stroke-linejoin="round"/>
<path d="M1 11.5C1 14.3284 1 15.7426 1.87868 16.6213C2.75736 17.5 4.17157 17.5 7 17.5L14 17.5C16.8284 17.5 18.2426 17.5 19.1213 16.6213C20 15.7426 20 14.3284 20 11.5L20 7.5C20 4.67157 20 3.25736 19.1213 2.37868C18.2426 1.5 16.8284 1.5 14 1.5L7 1.5C4.17157 1.5 2.75736 1.5 1.87868 2.37868C1 3.25736 1 4.67157 1 7.5L1 11.5Z" stroke="#D0D5DD" stroke-width="1.5"/>
<path d="M6.5 12.5L6.5 9.5M10.5 12.5L10.5 6.5M14.5 12.5V10.5" stroke="#D0D5DD" stroke-width="1.5" stroke-linecap="round"/>
</svg>
