<svg width="22" height="23" viewBox="0 0 22 23" fill="none" xmlns="http://www.w3.org/2000/svg">
<path opacity="0.3" d="M1.5 11.5C1.5 14.3284 1.5 15.7426 2.37868 16.6213C3.25736 17.5 4.67157 17.5 7.5 17.5L14.5 17.5C17.3284 17.5 18.7426 17.5 19.6213 16.6213C20.5 15.7426 20.5 14.3284 20.5 11.5L20.5 7.5C20.5 4.67157 20.5 3.25736 19.6213 2.37868C18.7426 1.5 17.3284 1.5 14.5 1.5L7.5 1.5C4.67157 1.5 3.25736 1.5 2.37868 2.37868C1.5 3.25736 1.5 4.67157 1.5 7.5L1.5 11.5Z" fill="#1D6A4B"/>
<path d="M11 17.5L11 21.5" stroke="#1D6A4B" stroke-width="1.5" stroke-linecap="round" stroke-linejoin="round"/>
<path d="M9 17.5L4 21.5" stroke="#1D6A4B" stroke-width="1.5" stroke-linecap="round" stroke-linejoin="round"/>
<path d="M13 17.5L18 21.5" stroke="#1D6A4B" stroke-width="1.5" stroke-linecap="round" stroke-linejoin="round"/>
<path d="M1.5 11.5C1.5 14.3284 1.5 15.7426 2.37868 16.6213C3.25736 17.5 4.67157 17.5 7.5 17.5L14.5 17.5C17.3284 17.5 18.7426 17.5 19.6213 16.6213C20.5 15.7426 20.5 14.3284 20.5 11.5L20.5 7.5C20.5 4.67157 20.5 3.25736 19.6213 2.37868C18.7426 1.5 17.3284 1.5 14.5 1.5L7.5 1.5C4.67157 1.5 3.25736 1.5 2.37868 2.37868C1.5 3.25736 1.5 4.67157 1.5 7.5L1.5 11.5Z" stroke="#1D6A4B" stroke-width="1.5"/>
<path d="M7 12.5L7 9.5M11 12.5L11 6.5M15 12.5V10.5" stroke="#1D6A4B" stroke-width="1.5" stroke-linecap="round"/>
</svg>
