<svg width="16" height="17" viewBox="0 0 16 17" fill="none" xmlns="http://www.w3.org/2000/svg">
<path opacity="0.3" d="M2 10.75L2 7.75L14 7.75V10.75C14 13.2249 14 14.4623 13.2312 15.2312C12.4623 16 11.2249 16 8.75 16H7.25C4.77513 16 3.53769 16 2.76884 15.2312C2 14.4623 2 13.2249 2 10.75Z" fill="#1D6A4B"/>
<path d="M3.5 2.33929C3.5 1.59962 4.09962 1 4.83929 1L5.10714 1C6.70482 1 8 2.29518 8 3.89286V4.75L5.91071 4.75C4.57931 4.75 3.5 3.67069 3.5 2.33929Z" fill="white"/>
<path opacity="0.3" d="M12.5 2.33929C12.5 1.59962 11.9004 1 11.1607 1L10.8929 1C9.29518 1 8 2.29518 8 3.89286L8 4.75H10.0893C11.4207 4.75 12.5 3.67069 12.5 2.33929Z" fill="#1D6A4B"/>
<path d="M1.25 6.25C1.25 5.68923 1.25 5.40885 1.40072 5.2C1.49946 5.06318 1.64148 4.94957 1.8125 4.87058C2.07356 4.75 2.42404 4.75 3.125 4.75L12.875 4.75C13.576 4.75 13.9264 4.75 14.1875 4.87058C14.3585 4.94957 14.5005 5.06318 14.5993 5.2C14.75 5.40885 14.75 5.68923 14.75 6.25C14.75 6.81077 14.75 7.09115 14.5993 7.3C14.5005 7.43682 14.3585 7.55043 14.1875 7.62942C13.9264 7.75 13.576 7.75 12.875 7.75L3.125 7.75C2.42404 7.75 2.07356 7.75 1.8125 7.62942C1.64148 7.55043 1.49946 7.43682 1.40072 7.3C1.25 7.09115 1.25 6.81077 1.25 6.25Z" fill="white"/>
<path d="M2 7.75L2 10.75C2 13.2249 2 14.4623 2.76884 15.2312C3.53769 16 4.77513 16 7.25 16H8.75C11.2249 16 12.4623 16 13.2312 15.2312C14 14.4623 14 13.2249 14 10.75V7.75" stroke="#1D6A4B" stroke-width="1.5" stroke-linecap="round" stroke-linejoin="round"/>
<path d="M1.25 6.25C1.25 5.68923 1.25 5.40885 1.40072 5.2C1.49946 5.06318 1.64148 4.94957 1.8125 4.87058C2.07356 4.75 2.42404 4.75 3.125 4.75L12.875 4.75C13.576 4.75 13.9264 4.75 14.1875 4.87058C14.3585 4.94957 14.5005 5.06318 14.5993 5.2C14.75 5.40885 14.75 5.68923 14.75 6.25C14.75 6.81077 14.75 7.09115 14.5993 7.3C14.5005 7.43682 14.3585 7.55043 14.1875 7.62942C13.9264 7.75 13.576 7.75 12.875 7.75L3.125 7.75C2.42404 7.75 2.07356 7.75 1.8125 7.62942C1.64148 7.55043 1.49946 7.43682 1.40072 7.3C1.25 7.09115 1.25 6.81077 1.25 6.25Z" stroke="#1D6A4B" stroke-width="1.5" stroke-linejoin="round"/>
<path d="M3.5 2.33929C3.5 1.59962 4.09962 1 4.83929 1L5.10714 1C6.70482 1 8 2.29518 8 3.89286V4.75L5.91071 4.75C4.57931 4.75 3.5 3.67069 3.5 2.33929Z" stroke="#1D6A4B" stroke-width="1.5" stroke-linejoin="round"/>
<path d="M12.5 2.33929C12.5 1.59962 11.9004 1 11.1607 1L10.8929 1C9.29518 1 8 2.29518 8 3.89286L8 4.75H10.0893C11.4207 4.75 12.5 3.67069 12.5 2.33929Z" stroke="#1D6A4B" stroke-width="1.5" stroke-linejoin="round"/>
<path d="M8 7.75L8 16" stroke="#1D6A4B" stroke-width="1.5" stroke-linecap="round" stroke-linejoin="round"/>
</svg>
