<svg width="18" height="17" viewBox="0 0 18 17" fill="none" xmlns="http://www.w3.org/2000/svg">
<path opacity="0.4" fill-rule="evenodd" clip-rule="evenodd" d="M12.5947 12.0947C12.8876 11.8018 13.3624 11.8018 13.6553 12.0947L17.0303 15.4697C17.3232 15.7626 17.3232 16.2374 17.0303 16.5303C16.7374 16.8232 16.2626 16.8232 15.9697 16.5303L12.5947 13.1553C12.3018 12.8624 12.3018 12.3876 12.5947 12.0947Z" fill="#D0D5DD"/>
<path fill-rule="evenodd" clip-rule="evenodd" d="M0.75 7.75C0.75 3.60786 4.10786 0.25 8.25 0.25C12.3921 0.25 15.75 3.60786 15.75 7.75C15.75 11.8921 12.3921 15.25 8.25 15.25C4.10786 15.25 0.75 11.8921 0.75 7.75ZM8.25 1.75C4.93629 1.75 2.25 4.43629 2.25 7.75C2.25 11.0637 4.93629 13.75 8.25 13.75C11.5637 13.75 14.25 11.0637 14.25 7.75C14.25 4.43629 11.5637 1.75 8.25 1.75Z" fill="#D0D5DD"/>
</svg>
