<svg width="18" height="19" viewBox="0 0 18 19" fill="none" xmlns="http://www.w3.org/2000/svg">
<path opacity="0.3" d="M7.12207 17L10.8721 17C12.9934 17 14.054 17 14.7131 16.3404C15.3721 15.6808 15.3721 14.6191 15.3721 12.4958V7.61627C15.3721 5.49298 15.3721 4.43133 14.7131 3.77171C14.2317 3.28988 13.536 3.16001 12.3691 3.125H5.625C4.45815 3.16001 3.76246 3.28988 3.28108 3.77171C2.62207 4.43133 2.62207 5.49298 2.62207 7.61627V12.4958C2.62207 14.6191 2.62207 15.6808 3.28108 16.3404C3.94009 17 5.00075 17 7.12207 17Z" fill="#1D6A4B" stroke="#1D6A4B" stroke-width="1.5"/>
<path d="M5.62207 3.3125C5.62207 2.58763 6.2097 2 6.93457 2H11.0596C11.7844 2 12.3721 2.58763 12.3721 3.3125C12.3721 4.03737 11.7844 4.625 11.0596 4.625H6.93457C6.2097 4.625 5.62207 4.03737 5.62207 3.3125Z" fill="#1D6A4B" stroke="#1D6A4B" stroke-width="1.5" stroke-linejoin="round"/>
<path d="M5.99854 12.5H8.99854M5.99854 8.75H11.9985" stroke="#1D6A4B" stroke-width="1.5" stroke-linecap="round"/>
<path d="M5.625 3.125C4.45815 3.16001 3.76246 3.28988 3.28108 3.77171C2.62207 4.43133 2.62207 5.49298 2.62207 7.61627L2.62207 12.4958C2.62207 14.6191 2.62207 15.6808 3.28108 16.3404C3.94009 17 5.00075 17 7.12207 17L10.8721 17C12.9934 17 14.054 17 14.7131 16.3404C15.3721 15.6808 15.3721 14.6191 15.3721 12.4958V7.61627C15.3721 5.49298 15.3721 4.43133 14.7131 3.77171C14.2317 3.28988 13.536 3.16001 12.3691 3.125" stroke="#1D6A4B" stroke-width="1.5"/>
<path d="M5.62207 3.3125C5.62207 2.58763 6.2097 2 6.93457 2H11.0596C11.7844 2 12.3721 2.58763 12.3721 3.3125C12.3721 4.03737 11.7844 4.625 11.0596 4.625H6.93457C6.2097 4.625 5.62207 4.03737 5.62207 3.3125Z" stroke="#1D6A4B" stroke-width="1.5" stroke-linejoin="round"/>
</svg>
