<svg width="30" height="30" viewBox="0 0 30 30" fill="none" xmlns="http://www.w3.org/2000/svg">
<path d="M0 15C0 6.71573 6.71573 0 15 0C23.2843 0 30 6.71573 30 15C30 23.2843 23.2843 30 15 30C6.71573 30 0 23.2843 0 15Z" fill="#21B289"/>
<path d="M16.4811 13.4011V11.616H20.5633V8.89608H9.44745V11.616H13.5301V13.3997C10.2121 13.5521 7.71729 14.2092 7.71729 14.9964C7.71729 15.7836 10.2133 16.4407 13.5301 16.5941V22.3121H16.4821V16.5936C19.7941 16.4407 22.2838 15.7841 22.2838 14.9976C22.2838 14.2111 19.7941 13.5545 16.4821 13.4016M16.4821 16.1093V16.1078C16.3988 16.1131 15.9709 16.1388 15.0181 16.1388C14.2563 16.1388 13.7204 16.1172 13.5315 16.1074V16.1098C10.6002 15.9799 8.41209 15.4694 8.41209 14.8586C8.41209 14.2478 10.6004 13.7381 13.5315 13.608V15.6012C13.7235 15.6144 14.2726 15.6468 15.0306 15.6468C15.9409 15.6468 16.3986 15.6089 16.4826 15.6012V13.608C19.4082 13.7383 21.5912 14.2493 21.5912 14.8579C21.5912 15.4666 19.4072 15.9778 16.4826 16.1081" fill="white"/>
</svg>
