<svg width="18" height="19" viewBox="0 0 18 19" fill="none" xmlns="http://www.w3.org/2000/svg">
<circle opacity="0.4" cx="9" cy="9.5" r="7.5" fill="#1D6A4B"/>
<circle cx="9" cy="9.5" r="7.5" stroke="#1D6A4B" stroke-width="1.5"/>
<path d="M7.125 12.5L7.125 6.5" stroke="#1D6A4B" stroke-width="1.5" stroke-linecap="round"/>
<path d="M8.25 6.5V5M10.125 6.5V5" stroke="#1D6A4B" stroke-width="1.5" stroke-linecap="round"/>
<path d="M8.25 14V12.5M10.125 14V12.5" stroke="#1D6A4B" stroke-width="1.5" stroke-linecap="round"/>
<path d="M7.125 9.5L10.875 9.5C11.4963 9.5 12 10.0037 12 10.625V11.375C12 11.9963 11.4963 12.5 10.875 12.5L6 12.5" stroke="#1D6A4B" stroke-width="1.5" stroke-linecap="round" stroke-linejoin="round"/>
<path d="M6 6.5L10.875 6.5C11.4963 6.5 12 7.00368 12 7.625V8.375C12 8.99632 11.4963 9.5 10.875 9.5L7.125 9.5" stroke="#1D6A4B" stroke-width="1.5" stroke-linecap="round" stroke-linejoin="round"/>
</svg>
