<svg width="16" height="16" viewBox="0 0 16 16" fill="none" xmlns="http://www.w3.org/2000/svg">
<path opacity="0.3" d="M15.125 8.00018C15.125 4.64143 15.125 2.96205 14.0816 1.91862C13.0381 0.875183 11.3588 0.875183 8 0.875183C4.64124 0.875183 2.96186 0.875183 1.91843 1.91862C0.875 2.96205 0.875 4.64143 0.875 8.00018C0.875 11.3589 0.875 13.0383 1.91843 14.0818C2.96186 15.1252 4.64124 15.1252 8 15.1252C11.3588 15.1252 13.0381 15.1252 14.0816 14.0818C15.125 13.0383 15.125 11.3589 15.125 8.00018Z" fill="white"/>
<path d="M15.125 8.00018C15.125 4.64143 15.125 2.96205 14.0816 1.91862C13.0381 0.875183 11.3588 0.875183 8 0.875183C4.64124 0.875183 2.96186 0.875183 1.91843 1.91862C0.875 2.96205 0.875 4.64143 0.875 8.00018C0.875 11.3589 0.875 13.0383 1.91843 14.0818C2.96186 15.1252 4.64124 15.1252 8 15.1252C11.3588 15.1252 13.0381 15.1252 14.0816 14.0818C15.125 13.0383 15.125 11.3589 15.125 8.00018Z" stroke="white" stroke-width="1.5"/>
<path d="M10.0798 5.92034L5.75 10.2502M10.0798 5.92034C9.70086 5.54135 7.91342 5.91267 7.37369 5.92034M10.0798 5.92034C10.4588 6.29932 10.0875 8.08676 10.0798 8.62649" stroke="#F2F4F7" stroke-width="1.5" stroke-linecap="round" stroke-linejoin="round"/>
</svg>
