<svg width="37" height="26" viewBox="0 0 37 26" fill="none" xmlns="http://www.w3.org/2000/svg">
<path d="M0.5 4.059V8H6.128L0.5 4.059ZM5.164 26H13.5V20.163L5.164 26ZM23.5 20.164V26H31.835L23.5 20.164ZM0.5 18V21.941L6.13 18H0.5ZM31.837 0H23.5V5.837L31.837 0ZM36.5 21.942V18H30.869L36.5 21.942ZM36.5 8V4.059L30.871 8H36.5ZM13.5 0H5.164L13.5 5.837V0Z" fill="#00247D"/>
<path d="M25.64 18.0002L35.352 24.8012C35.8255 24.312 36.1662 23.71 36.342 23.0522L29.127 18.0002H25.64ZM13.5 18.0002H11.359L1.64798 24.8002C2.16898 25.3302 2.83698 25.7092 3.58598 25.8852L13.5 18.9432V18.0002ZM23.5 8.00023H25.641L35.352 1.20023C34.8216 0.663037 34.1501 0.286879 33.415 0.115234L23.5 7.05723V8.00023ZM11.359 8.00023L1.64798 1.20023C1.17415 1.68937 0.833045 2.29138 0.656982 2.94923L7.87198 8.00023H11.359Z" fill="#CF1B2B"/>
<path d="M36.5 16H21.5V26H23.5V20.164L31.835 26H32.5C33.0312 25.9995 33.5569 25.8933 34.0466 25.6874C34.5363 25.4815 34.98 25.1802 35.352 24.801L25.64 18H29.127L36.342 23.052C36.435 22.715 36.5 22.366 36.5 22V21.942L30.869 18H36.5V16ZM0.5 16V18H6.13L0.5 21.941V22C0.5 23.091 0.939 24.078 1.648 24.8L11.359 18H13.5V18.943L3.586 25.884C3.88 25.954 4.184 26 4.5 26H5.164L13.5 20.163V26H15.5V16H0.5ZM36.5 4C36.5009 2.95192 36.0884 1.94577 35.352 1.2L25.641 8H23.5V7.057L33.415 0.115C33.1155 0.0415182 32.8084 0.00292874 32.5 0H31.837L23.5 5.837V0H21.5V10H36.5V8H30.871L36.5 4.059V4ZM13.5 0V5.837L5.164 0H4.5C3.96875 0.000607477 3.44294 0.107034 2.95327 0.313066C2.4636 0.519099 2.01988 0.820611 1.648 1.2L11.359 8H7.872L0.657 2.949C0.558157 3.29079 0.505358 3.64424 0.5 4L0.5 4.059L6.128 8H0.5V10H15.5V0H13.5Z" fill="#EEEEEE"/>
<path d="M21.5 10V0H15.5V10H0.5V16H15.5V26H21.5V16H36.5V10H21.5Z" fill="#CF1B2B"/>
</svg>
