<svg width="22" height="22" viewBox="0 0 22 22" fill="none" xmlns="http://www.w3.org/2000/svg">
<path d="M20.998 15V13C20.998 10.1716 20.998 8.75736 20.1194 7.87868C19.0164 6.98162 17.5789 6.91912 16.998 7C16.998 6.07003 16.998 5.60504 16.8958 5.22354C16.6184 4.18827 15.8098 3.37962 14.7745 3.10222C14.393 3 13.928 3 12.998 3L8.99805 3C5.22681 3 3.34119 3 2.16962 4.17157C0.998047 5.34315 0.998047 7.22876 0.998047 11L0.998047 13C0.998047 16.7712 0.998047 18.6569 2.16962 19.8284C3.34119 21 5.22681 21 8.99805 21H14.998C17.8265 21 19.2407 21 20.1194 20.1213C20.998 19.2426 20.998 17.8284 20.998 15Z" fill="white" stroke="#1D6A4B" stroke-width="2" stroke-linecap="round"/>
<path opacity="0.3" d="M21 15.0111L21 13.0147C21 10.1915 21 8.77991 20.1213 7.90285C19.0184 7.00745 17.5809 6.94506 17 7.02579L4.72735 7.02579C3.02407 7.02579 2.17243 7.02579 1.58669 7.61024C1.00095 8.19468 1.00065 9.01044 1.00005 10.642L1 13.0147C1 16.779 1 18.6612 2.17157 19.8306C3.34315 21 5.22876 21 9 21L15 21C17.8284 21 19.2426 21 20.1213 20.1229C21 19.2459 21 17.8343 21 15.0111Z" fill="#1D6A4B"/>
<path d="M15 13C15 13.8284 15.6716 14.5 16.5 14.5C17.3284 14.5 18 13.8284 18 13C18 12.1716 17.3284 11.5 16.5 11.5C15.6716 11.5 15 12.1716 15 13Z" fill="white"/>
<path d="M13 1C15.7614 1 18 3.23858 18 6C18 6.34247 17.9656 6.67689 17.9 7L8.10002 7C8.03443 6.67689 8 6.34247 8 6C8 3.23858 10.2386 1 13 1Z" fill="white"/>
<path d="M15 13C15 13.8284 15.6716 14.5 16.5 14.5C17.3284 14.5 18 13.8284 18 13C18 12.1716 17.3284 11.5 16.5 11.5C15.6716 11.5 15 12.1716 15 13Z" stroke="#1D6A4B" stroke-width="2"/>
<path d="M17.9 7C17.9656 6.67689 18 6.34247 18 6C18 3.23858 15.7614 1 13 1C10.2386 1 8 3.23858 8 6C8 6.34247 8.03443 6.67689 8.10002 7" stroke="#1D6A4B" stroke-width="2"/>
<path d="M6 6.99324L15 6.99324C17.8284 6.99324 19.2426 6.99324 20.1213 7.87234C21 8.75145 21 10.1663 21 12.9961V14.9971C21 17.8269 21 19.2418 20.1213 20.1209C19.2426 21 17.8284 21 15 21H9C5.22876 21 3.34315 21 2.17157 19.8279C1 18.6557 1 16.7692 1 12.9961L1 10.9952C1 7.22211 1 5.33558 2.17157 4.16344C3.11466 3.2199 4.52043 3.03589 7 3L9 3" stroke="#1D6A4B" stroke-width="2" stroke-linecap="round"/>
</svg>
